ply
format ascii 1.0
element vertex 25
property double x
property double y
property double z
end_header
0.342268000000000 -0.068705000000000 -0.900806000000000
0.485611000000000 -0.063120000000000 -1.242738000000000
0.690403000000000 -0.204660000000000 -0.996330000000000
1.036106000000000 -0.390435000000000 -0.781631000000000
1.278973000000000 -0.305218000000000 -0.758501000000000
0.240921000000000 -0.333587000000000 -0.659816000000000
0.177530000000000 -0.108710000000000 -1.040458000000000
0.247235000000000 -0.058324000000000 -1.302419000000000
0.546391000000000 -0.408592000000000 -0.634945000000000
0.402836000000000 -0.109318000000000 -1.361115000000000
0.750116000000000 -0.504521000000000 -0.662916000000000
0.731660000000000 -0.380434000000000 -0.897703000000000
0.669840000000000 -0.280660000000000 -1.381484000000000
1.001105000000000 -0.420160000000000 -1.121879000000000
1.063589000000000 -0.520837000000000 -1.021979000000000
1.091048000000000 -0.410451000000000 -1.135844000000000
0.144093000000000 -0.412627000000000 -0.827944000000000
0.028278000000000 -0.400404000000000 -1.107207000000000
0.418429000000000 -0.621010000000000 -0.773433000000000
0.585252000000000 -0.569651000000000 -1.197811000000000
0.562613000000000 -0.453548000000000 -1.411507000000000
0.884034000000000 -0.635290000000000 -0.910109000000000
0.229200000000000 -0.621152000000000 -1.193382000000000
0.599793000000000 -0.780361000000000 -0.742487000000000
0.441988000000000 -0.581206000000000 -1.259729000000000
