ply
format ascii 1.0
element vertex 25
property double x
property double y
property double z
end_header
0.026851000000000 0.175050000000000 0.791249000000000
0.101690000000000 0.724461000000000 1.425566000000000
-0.059423000000000 0.308023000000000 0.877363000000000
-0.176523000000000 0.580818000000000 1.175957000000000
-0.368272000000000 0.123593000000000 0.854276000000000
-0.356439000000000 0.284116000000000 0.918955000000000
-0.371767000000000 0.564546000000000 1.167745000000000
-0.336057000000000 0.716173000000000 1.332909000000000
-0.519956000000000 0.136723000000000 0.849354000000000
-0.516118000000000 0.353364000000000 0.998392000000000
-0.475289000000000 0.652757000000000 1.317503000000000
-0.666487000000000 0.269829000000000 1.010388000000000
0.024674000000000 0.046560000000000 0.916142000000000
0.054129000000000 0.462706000000000 1.336483000000000
0.047574000000000 0.582564000000000 1.407904000000000
-0.173508000000000 0.071365000000000 0.892116000000000
-0.102798000000000 0.514937000000000 1.289284000000000
-0.148642000000000 0.595624000000000 1.415217000000000
-0.343394000000000 0.132121000000000 0.977756000000000
-0.495758000000000 0.020577000000000 0.883446000000000
-0.543349000000000 0.189955000000000 1.056427000000000
0.076182000000000 0.028206000000000 1.055174000000000
-0.037398000000000 0.582846000000000 1.599430000000000
-0.081173000000000 0.615031000000000 1.592008000000000
-0.425901000000000 -0.082377000000000 0.942770000000000
